<svg xmlns="http://www.w3.org/2000/svg" xmlns:xlink="http://www.w3.org/1999/xlink" width="1000" zoomAndPan="magnify" viewBox="0 0 750 749.999995" height="1000" preserveAspectRatio="xMidYMid meet" version="1.0"><defs><clipPath id="f33b17da69"><path d="M 291 380 L 672.75 380 L 672.75 582.660156 L 291 582.660156 Z M 291 380 " clip-rule="nonzero"/></clipPath></defs><path fill="#9b5e02" d="M 457.402344 378.152344 L 437.816406 314.511719 L 437.769531 314.601562 C 437.652344 314.082031 437.332031 313.605469 436.785156 313.355469 L 372.128906 283.570312 C 368.066406 281.699219 363.503906 281.5 359.308594 283.003906 L 102.472656 375.113281 C 101.570312 375.4375 98.613281 375.265625 98.355469 376.085938 L 76.695312 436.234375 C 76.695312 436.234375 74.984375 439.371094 79.476562 441.417969 L 169.394531 482.097656 L 169.511719 482.1875 L 169.535156 482.207031 C 170.125 482.652344 172.832031 484.449219 177.675781 484.382812 C 179.859375 484.355469 182.460938 483.953125 185.519531 482.859375 L 454.789062 386.289062 C 454.789062 386.289062 458.910156 382.753906 457.402344 378.152344 " fill-opacity="1" fill-rule="nonzero"/><path fill="#a16800" d="M 435.515625 312.542969 L 176.878906 405.300781 L 184.382812 478.652344 L 453.652344 382.082031 L 435.515625 312.542969 " fill-opacity="1" fill-rule="nonzero"/><path fill="#fab300" d="M 162.933594 404.929688 L 101.367188 376.574219 L 80.707031 438.085938 L 168.257812 477.890625 L 162.933594 404.929688 " fill-opacity="1" fill-rule="nonzero"/><path fill="#f6f4df" d="M 455.453125 377.253906 C 455.453125 377.253906 438.617188 315.949219 437.753906 313.648438 C 436.894531 311.347656 434.742188 308.816406 430.222656 306.746094 L 370.992188 279.367188 C 366.929688 277.496094 362.367188 277.292969 358.171875 278.796875 L 101.335938 370.90625 C 100.429688 371.230469 99.84375 371.941406 99.589844 372.753906 L 99.4375 372.4375 L 77.929688 432.910156 C 77.929688 432.910156 76.21875 436.046875 80.707031 438.085938 L 99.148438 383.1875 C 100.347656 379.601562 104.132812 377.847656 107.402344 379.355469 C 118.585938 384.507812 142.507812 395.523438 154.871094 401.21875 C 159.640625 403.417969 162.882812 408.246094 163.308594 413.785156 L 168.257812 477.890625 C 168.257812 477.890625 173.605469 482.515625 184.382812 478.652344 L 178.054688 414.898438 C 177.496094 409.246094 180.683594 403.933594 185.722656 402.125 L 429.421875 314.726562 C 432.734375 313.539062 436.300781 315.566406 437.242188 319.160156 L 453.652344 382.082031 C 453.652344 382.082031 456.230469 380.246094 455.453125 377.253906 " fill-opacity="1" fill-rule="nonzero"/><path fill="#fab300" d="M 102.011719 370.929688 C 101.648438 371.058594 101.5625 371.355469 101.554688 371.578125 C 101.546875 371.804688 101.609375 372.101562 101.957031 372.265625 L 163.722656 400.714844 C 165.820312 401.679688 168.039062 402.167969 170.328125 402.167969 C 172.132812 402.167969 173.917969 401.855469 175.628906 401.242188 L 376.03125 328.582031 L 180.136719 342.910156 L 102.011719 370.929688 " fill-opacity="1" fill-rule="nonzero"/><path fill="#ffd34b" d="M 366.359375 281.023438 C 364.371094 280.105469 362.257812 279.644531 360.089844 279.644531 C 358.375 279.644531 356.679688 279.9375 355.050781 280.519531 L 180.136719 342.910156 C 180.136719 342.910156 252.933594 355.492188 391.828125 324.019531 L 416.449219 312.035156 C 421.613281 309.738281 424.894531 307.988281 422.140625 306.714844 L 366.359375 281.023438 " fill-opacity="1" fill-rule="nonzero"/><path fill="#ffd34b" d="M 163.722656 400.714844 L 101.957031 372.265625 C 101.609375 372.101562 101.546875 371.804688 101.554688 371.578125 C 101.5625 371.351562 101.648438 371.058594 102.011719 370.929688 L 117.433594 365.398438 C 117.335938 365.347656 117.242188 365.292969 117.144531 365.238281 L 101.335938 370.90625 C 100.429688 371.230469 99.84375 371.941406 99.589844 372.753906 L 99.4375 372.4375 L 77.929688 432.910156 C 77.929688 432.910156 76.21875 436.046875 80.707031 438.085938 L 99.148438 383.1875 C 100.351562 379.601562 104.132812 377.847656 107.402344 379.355469 C 118.585938 384.507812 142.507812 395.523438 154.871094 401.21875 C 159.644531 403.417969 162.882812 408.246094 163.308594 413.785156 L 168.257812 477.890625 C 168.257812 477.890625 171.019531 480.25 176.539062 480.179688 L 171.804688 411.140625 C 171.804688 411.140625 171.527344 405.433594 163.722656 400.714844 " fill-opacity="1" fill-rule="nonzero"/><path fill="#ffecc3" d="M 428.472656 308.382812 L 427.265625 307.824219 L 176.566406 397.253906 C 174.851562 397.871094 173.0625 398.183594 171.257812 398.183594 C 168.976562 398.183594 166.753906 397.691406 164.65625 396.722656 L 105.75 369.597656 L 102.011719 370.929688 C 101.648438 371.058594 101.5625 371.355469 101.554688 371.578125 C 101.546875 371.804688 101.609375 372.101562 101.957031 372.265625 L 163.722656 400.714844 C 165.820312 401.679688 168.039062 402.167969 170.328125 402.167969 C 172.132812 402.167969 173.917969 401.855469 175.628906 401.242188 L 428.363281 311.089844 C 429.546875 310.667969 429.617188 308.910156 428.472656 308.382812 " fill-opacity="1" fill-rule="nonzero"/><path fill="#703b00" d="M 202.269531 439.554688 C 179.886719 447.527344 183.617188 462.148438 183.617188 462.148438 L 184.347656 478.320312 L 453.652344 382.082031 L 453.425781 381.226562 C 407.425781 359.808594 387.53125 370.445312 387.53125 370.445312 C 387.53125 370.445312 224.648438 431.582031 202.269531 439.554688 " fill-opacity="1" fill-rule="nonzero"/><path fill="#9b5e02" d="M 565.53125 427.300781 L 545.941406 363.660156 L 545.894531 363.753906 C 545.785156 363.230469 545.460938 362.757812 544.917969 362.503906 L 480.257812 332.722656 C 476.195312 330.855469 471.628906 330.648438 467.4375 332.152344 L 210.605469 424.261719 C 209.695312 424.589844 206.742188 424.417969 206.484375 425.234375 L 184.828125 485.386719 C 184.828125 485.386719 183.113281 488.523438 187.605469 490.566406 L 277.527344 531.246094 L 277.640625 531.339844 L 277.664062 531.355469 C 278.253906 531.800781 280.960938 533.597656 285.800781 533.535156 L 285.804688 533.535156 C 287.988281 533.503906 290.59375 533.105469 293.648438 532.007812 L 562.917969 435.4375 C 562.917969 435.4375 567.039062 431.902344 565.53125 427.300781 " fill-opacity="1" fill-rule="nonzero"/><path fill="#a16800" d="M 543.644531 361.695312 L 285.007812 454.449219 L 292.507812 527.800781 L 561.78125 431.230469 L 543.644531 361.695312 " fill-opacity="1" fill-rule="nonzero"/><path fill="#fab300" d="M 271.058594 454.078125 L 209.496094 425.726562 L 188.839844 487.238281 L 276.386719 527.042969 L 271.058594 454.078125 " fill-opacity="1" fill-rule="nonzero"/><path fill="#ffecc3" d="M 563.578125 426.402344 C 563.578125 426.402344 546.746094 365.097656 545.882812 362.796875 C 545.023438 360.496094 542.871094 357.96875 538.351562 355.894531 L 479.117188 328.515625 C 475.054688 326.644531 470.492188 326.441406 466.300781 327.945312 L 209.46875 420.054688 C 208.558594 420.378906 207.972656 421.089844 207.714844 421.90625 L 207.566406 421.589844 L 186.058594 482.058594 C 186.058594 482.058594 184.34375 485.195312 188.839844 487.238281 L 207.273438 432.335938 C 208.480469 428.753906 212.261719 427 215.53125 428.507812 C 226.714844 433.65625 250.636719 444.675781 263 450.367188 C 267.769531 452.566406 271.011719 457.394531 271.4375 462.933594 L 276.386719 527.042969 C 276.386719 527.042969 281.734375 531.667969 292.507812 527.800781 L 286.183594 464.046875 C 285.621094 458.394531 288.808594 453.085938 293.855469 451.277344 L 537.550781 363.878906 C 540.863281 362.6875 544.433594 364.714844 545.371094 368.3125 L 561.78125 431.230469 C 561.78125 431.230469 564.359375 429.394531 563.578125 426.402344 " fill-opacity="1" fill-rule="nonzero"/><path fill="#c8871d" d="M 210.140625 420.082031 C 209.777344 420.210938 209.691406 420.503906 209.683594 420.726562 C 209.671875 420.953125 209.738281 421.253906 210.085938 421.417969 L 271.847656 449.863281 C 273.949219 450.828125 276.171875 451.320312 278.453125 451.320312 C 280.257812 451.320312 282.042969 451.007812 283.757812 450.394531 L 484.15625 377.730469 L 288.265625 392.058594 L 210.140625 420.082031 " fill-opacity="1" fill-rule="nonzero"/><path fill="#ffd34b" d="M 474.488281 330.175781 C 472.496094 329.257812 470.386719 328.792969 468.21875 328.792969 C 466.5 328.792969 464.804688 329.089844 463.179688 329.667969 L 288.265625 392.058594 C 288.265625 392.058594 361.066406 404.640625 499.957031 373.167969 L 524.578125 361.1875 C 529.746094 358.890625 533.027344 357.136719 530.269531 355.867188 L 474.488281 330.175781 " fill-opacity="1" fill-rule="nonzero"/><path fill="#fadb67" d="M 271.847656 449.863281 L 210.085938 421.417969 C 209.738281 421.253906 209.671875 420.953125 209.683594 420.726562 C 209.691406 420.503906 209.777344 420.210938 210.140625 420.082031 L 225.5625 414.550781 C 225.464844 414.496094 225.367188 414.441406 225.273438 414.386719 L 209.46875 420.054688 C 208.558594 420.378906 207.972656 421.089844 207.714844 421.90625 L 207.566406 421.589844 L 186.058594 482.058594 C 186.058594 482.058594 184.34375 485.195312 188.839844 487.238281 L 207.273438 432.335938 C 208.480469 428.753906 212.261719 427 215.53125 428.503906 C 226.714844 433.65625 250.636719 444.671875 263 450.367188 C 267.769531 452.566406 271.011719 457.394531 271.4375 462.933594 L 276.386719 527.042969 C 276.386719 527.042969 279.144531 529.402344 284.664062 529.328125 L 279.933594 460.292969 C 279.933594 460.292969 279.65625 454.585938 271.847656 449.863281 " fill-opacity="1" fill-rule="nonzero"/><path fill="#ffecc3" d="M 536.601562 357.53125 L 535.398438 356.976562 L 284.691406 446.40625 C 282.980469 447.019531 281.195312 447.332031 279.386719 447.332031 C 277.101562 447.332031 274.878906 446.84375 272.78125 445.875 L 213.878906 418.746094 L 210.140625 420.082031 C 209.777344 420.210938 209.691406 420.503906 209.683594 420.726562 C 209.671875 420.953125 209.738281 421.253906 210.085938 421.417969 L 271.847656 449.863281 C 273.949219 450.828125 276.171875 451.320312 278.453125 451.320312 C 280.257812 451.320312 282.042969 451.007812 283.757812 450.394531 L 536.492188 360.238281 C 537.675781 359.820312 537.746094 358.058594 536.601562 357.53125 " fill-opacity="1" fill-rule="nonzero"/><path fill="#703b00" d="M 310.394531 488.703125 C 288.011719 496.675781 291.746094 511.296875 291.746094 511.296875 L 292.476562 527.46875 L 561.78125 431.230469 L 561.558594 430.375 C 515.554688 408.960938 495.65625 419.59375 495.65625 419.59375 C 495.65625 419.59375 332.777344 480.730469 310.394531 488.703125 " fill-opacity="1" fill-rule="nonzero"/><g clip-path="url(#f33b17da69)"><path fill="#9b5e02" d="M 672.4375 476.429688 L 652.851562 412.785156 L 652.804688 412.878906 C 652.691406 412.355469 652.367188 411.882812 651.820312 411.628906 L 587.164062 381.847656 C 583.101562 379.976562 578.539062 379.773438 574.34375 381.277344 L 317.507812 473.386719 C 316.605469 473.714844 313.648438 473.542969 313.390625 474.359375 L 291.730469 534.507812 C 291.730469 534.507812 290.019531 537.652344 294.511719 539.691406 L 384.429688 580.371094 L 384.546875 580.464844 L 384.570312 580.480469 C 385.160156 580.929688 387.867188 582.722656 392.710938 582.65625 C 394.894531 582.628906 397.5 582.230469 400.554688 581.132812 L 669.824219 484.5625 C 669.824219 484.5625 673.945312 481.027344 672.4375 476.429688 " fill-opacity="1" fill-rule="nonzero"/></g><path fill="#ffd34b" d="M 650.550781 410.820312 L 391.914062 503.574219 L 399.417969 576.925781 L 668.6875 480.355469 L 650.550781 410.820312 " fill-opacity="1" fill-rule="nonzero"/><path fill="#fab300" d="M 377.96875 503.207031 L 316.402344 474.851562 L 295.742188 536.363281 L 383.292969 576.164062 L 377.96875 503.207031 " fill-opacity="1" fill-rule="nonzero"/><path fill="#ffecc3" d="M 670.488281 475.53125 C 670.488281 475.53125 653.652344 414.222656 652.789062 411.921875 C 651.929688 409.621094 649.777344 407.09375 645.257812 405.019531 L 586.027344 377.640625 C 581.964844 375.773438 577.402344 375.566406 573.207031 377.070312 L 316.375 469.179688 C 315.464844 469.507812 314.878906 470.214844 314.625 471.035156 L 314.472656 470.714844 L 292.964844 531.183594 C 292.964844 531.183594 291.253906 534.320312 295.742188 536.363281 L 314.183594 481.460938 C 315.382812 477.878906 319.167969 476.125 322.4375 477.632812 C 333.625 482.78125 357.542969 493.796875 369.90625 499.492188 C 374.679688 501.691406 377.921875 506.519531 378.347656 512.058594 L 383.292969 576.164062 C 383.292969 576.164062 388.644531 580.789062 399.417969 576.925781 L 393.089844 513.171875 C 392.53125 507.519531 395.71875 502.210938 400.761719 500.402344 L 644.457031 413.003906 C 647.769531 411.816406 651.339844 413.835938 652.28125 417.4375 L 668.6875 480.355469 C 668.6875 480.355469 671.265625 478.519531 670.488281 475.53125 " fill-opacity="1" fill-rule="nonzero"/><path fill="#fab300" d="M 317.046875 469.207031 C 316.6875 469.335938 316.597656 469.632812 316.589844 469.851562 C 316.582031 470.078125 316.644531 470.378906 316.992188 470.542969 L 378.757812 498.988281 C 380.855469 499.953125 383.078125 500.445312 385.363281 500.445312 C 387.167969 500.445312 388.953125 500.132812 390.667969 499.519531 L 591.066406 426.855469 L 395.175781 441.183594 L 317.046875 469.207031 " fill-opacity="1" fill-rule="nonzero"/><path fill="#ffd34b" d="M 581.398438 379.300781 C 579.40625 378.382812 577.292969 377.917969 575.125 377.917969 C 573.410156 377.917969 571.714844 378.214844 570.089844 378.796875 L 395.175781 441.183594 C 395.175781 441.183594 467.972656 453.765625 606.863281 422.292969 L 631.484375 410.3125 C 636.648438 408.011719 639.933594 406.261719 637.179688 404.992188 L 581.398438 379.300781 " fill-opacity="1" fill-rule="nonzero"/><path fill="#fadb67" d="M 378.757812 498.988281 L 316.992188 470.542969 C 316.644531 470.378906 316.582031 470.078125 316.589844 469.851562 C 316.597656 469.632812 316.6875 469.335938 317.046875 469.207031 L 332.464844 463.675781 C 332.371094 463.621094 332.277344 463.566406 332.179688 463.511719 L 316.375 469.179688 C 315.464844 469.507812 314.878906 470.214844 314.625 471.035156 L 314.472656 470.714844 L 292.964844 531.183594 C 292.964844 531.183594 291.253906 534.320312 295.742188 536.363281 L 314.183594 481.460938 C 315.382812 477.878906 319.167969 476.125 322.4375 477.628906 C 333.625 482.78125 357.542969 493.796875 369.90625 499.492188 C 374.679688 501.691406 377.921875 506.519531 378.347656 512.058594 L 383.292969 576.164062 C 383.292969 576.164062 386.054688 578.527344 391.574219 578.453125 L 386.839844 509.417969 C 386.839844 509.417969 386.566406 503.714844 378.757812 498.988281 " fill-opacity="1" fill-rule="nonzero"/><path fill="#ffecc3" d="M 643.511719 406.65625 L 642.300781 406.101562 L 391.601562 495.53125 C 389.886719 496.144531 388.101562 496.457031 386.292969 496.457031 C 384.011719 496.457031 381.789062 495.96875 379.691406 495.003906 L 320.789062 467.871094 L 317.046875 469.207031 C 316.6875 469.335938 316.597656 469.632812 316.589844 469.851562 C 316.582031 470.078125 316.644531 470.378906 316.992188 470.542969 L 378.757812 498.988281 C 380.855469 499.953125 383.078125 500.445312 385.363281 500.445312 C 387.167969 500.445312 388.953125 500.132812 390.667969 499.519531 L 643.398438 409.363281 C 644.582031 408.941406 644.652344 407.183594 643.511719 406.65625 " fill-opacity="1" fill-rule="nonzero"/><path fill="#fab300" d="M 417.304688 537.828125 C 394.921875 545.804688 398.65625 560.421875 398.65625 560.421875 L 399.382812 576.597656 L 668.6875 480.355469 L 668.464844 479.5 C 622.464844 458.085938 602.566406 468.71875 602.566406 468.71875 C 602.566406 468.71875 439.683594 529.855469 417.304688 537.828125 " fill-opacity="1" fill-rule="nonzero"/><path fill="#985002" d="M 293.8125 451.292969 C 293.828125 451.285156 293.839844 451.28125 293.855469 451.277344 L 298.492188 449.613281 L 293.8125 451.292969 " fill-opacity="1" fill-rule="nonzero"/><path fill="#9e5900" d="M 321.554688 467.324219 L 290.453125 453.234375 C 291.441406 452.40625 292.574219 451.742188 293.8125 451.292969 L 298.492188 449.613281 L 330.527344 464.105469 L 321.554688 467.324219 " fill-opacity="1" fill-rule="nonzero"/><path fill="#faca94" d="M 290.453125 453.234375 L 283.996094 450.308594 L 292.960938 447.109375 L 298.492188 449.613281 L 293.855469 451.277344 C 293.839844 451.28125 293.828125 451.285156 293.8125 451.292969 C 292.574219 451.742188 291.441406 452.40625 290.453125 453.234375 " fill-opacity="1" fill-rule="nonzero"/><path fill="#9e5900" d="M 213.78125 418.507812 L 182.195312 404.199219 C 183.222656 403.308594 184.414062 402.601562 185.722656 402.125 L 189.058594 400.933594 L 221.660156 415.683594 L 213.78125 418.507812 " fill-opacity="1" fill-rule="nonzero"/><path fill="#f1d1a9" d="M 182.195312 404.199219 L 175.648438 401.234375 L 183.523438 398.429688 L 189.058594 400.933594 L 185.722656 402.125 C 184.414062 402.601562 183.222656 403.308594 182.195312 404.199219 " fill-opacity="1" fill-rule="nonzero"/><path fill="#f59900" d="M 171.257812 398.183594 C 170.253906 398.183594 169.257812 398.085938 168.28125 397.898438 L 124.457031 378.046875 L 141.4375 371.980469 L 140.335938 375.050781 C 140.335938 375.050781 138.660156 378.121094 143.058594 380.121094 L 179.007812 396.382812 L 176.566406 397.253906 C 174.851562 397.871094 173.0625 398.183594 171.257812 398.183594 " fill-opacity="1" fill-rule="nonzero"/><path fill="#faca94" d="M 175.648438 401.234375 L 168.28125 397.898438 C 169.257812 398.085938 170.253906 398.183594 171.257812 398.183594 C 173.0625 398.183594 174.851562 397.871094 176.566406 397.253906 L 179.007812 396.382812 L 183.523438 398.429688 L 175.648438 401.234375 " fill-opacity="1" fill-rule="nonzero"/><path fill="#faca94" d="M 213.78125 418.507812 L 221.660156 415.683594 L 213.78125 418.507812 " fill-opacity="1" fill-rule="nonzero"/><path fill="#c47316" d="M 279.386719 447.332031 C 278.589844 447.332031 277.804688 447.273438 277.03125 447.15625 L 214.109375 418.65625 L 221.984375 415.832031 L 231.105469 419.957031 L 231.214844 420.042969 L 231.238281 420.0625 C 231.808594 420.492188 234.378906 422.195312 238.960938 422.195312 C 239.042969 422.195312 239.125 422.195312 239.210938 422.195312 C 240.402344 422.175781 241.722656 422.050781 243.171875 421.753906 C 243.007812 422.816406 243.25 424.613281 246.167969 425.941406 L 288.445312 445.066406 L 284.691406 446.40625 C 282.980469 447.019531 281.195312 447.332031 279.386719 447.332031 " fill-opacity="1" fill-rule="nonzero"/><path fill="#f5bb4e" d="M 214.109375 418.65625 L 213.78125 418.507812 L 221.660156 415.683594 L 221.984375 415.832031 L 214.109375 418.65625 " fill-opacity="1" fill-rule="nonzero"/><path fill="#faca94" d="M 283.996094 450.308594 L 277.03125 447.15625 C 277.804688 447.273438 278.589844 447.332031 279.386719 447.332031 C 281.195312 447.332031 282.980469 447.019531 284.691406 446.40625 L 288.445312 445.066406 L 292.960938 447.109375 L 283.996094 450.308594 " fill-opacity="1" fill-rule="nonzero"/><path fill="#faca94" d="M 321.882812 467.472656 L 330.851562 464.253906 L 321.882812 467.472656 M 321.554688 467.324219 L 330.527344 464.105469 L 321.554688 467.324219 M 598.894531 387.359375 L 586.566406 381.679688 L 586.996094 381.53125 L 599.417969 387.167969 L 598.894531 387.359375 " fill-opacity="1" fill-rule="nonzero"/><path fill="#f59900" d="M 345.539062 476.875 C 340.988281 476.875 338.4375 475.183594 337.875 474.757812 L 337.851562 474.738281 L 337.738281 474.652344 L 321.882812 467.472656 L 330.851562 464.253906 L 334.21875 465.777344 L 334.328125 465.863281 L 334.351562 465.882812 C 334.921875 466.3125 337.488281 468.015625 342.074219 468.015625 C 342.15625 468.015625 342.238281 468.015625 342.320312 468.011719 L 342.324219 468.011719 C 344.464844 467.984375 347.011719 467.597656 350.003906 466.519531 L 415.332031 443.09375 C 421.425781 443.425781 428.882812 443.671875 437.695312 443.671875 C 439.078125 443.671875 440.484375 443.664062 441.929688 443.652344 L 353.429688 475.390625 C 350.453125 476.457031 347.921875 476.847656 345.796875 476.875 L 345.792969 476.875 C 345.707031 476.875 345.625 476.875 345.539062 476.875 " fill-opacity="1" fill-rule="nonzero"/><path fill="#fab439" d="M 437.695312 443.671875 C 428.882812 443.671875 421.425781 443.425781 415.332031 443.09375 L 586.566406 381.679688 L 598.894531 387.359375 L 441.929688 443.652344 C 440.484375 443.664062 439.078125 443.671875 437.695312 443.671875 " fill-opacity="1" fill-rule="nonzero"/><path fill="#f5bb4e" d="M 321.882812 467.472656 L 321.554688 467.324219 L 330.527344 464.105469 L 330.851562 464.253906 L 321.882812 467.472656 " fill-opacity="1" fill-rule="nonzero"/><path fill="#9b5e02" d="M 513.117188 318.175781 L 493.9375 255.859375 L 493.890625 255.949219 C 493.777344 255.4375 493.464844 254.96875 492.925781 254.726562 L 429.617188 225.5625 C 425.640625 223.734375 421.171875 223.53125 417.066406 225.003906 L 165.574219 315.199219 C 164.6875 315.519531 161.792969 315.351562 161.542969 316.148438 L 140.335938 375.050781 C 140.335938 375.050781 138.660156 378.121094 143.058594 380.121094 L 231.105469 419.957031 L 231.214844 420.042969 L 231.238281 420.0625 C 231.816406 420.5 234.472656 422.257812 239.210938 422.195312 C 241.351562 422.167969 243.898438 421.777344 246.894531 420.699219 L 510.558594 326.140625 C 510.558594 326.140625 514.59375 322.679688 513.117188 318.175781 " fill-opacity="1" fill-rule="nonzero"/><path fill="#a16800" d="M 491.664062 253.980469 L 238.40625 344.808594 L 245.757812 416.632812 L 509.421875 322.074219 L 491.664062 253.980469 " fill-opacity="1" fill-rule="nonzero"/><path fill="#fab300" d="M 224.75 344.449219 L 164.46875 316.679688 L 144.242188 376.910156 L 229.96875 415.890625 L 224.75 344.449219 " fill-opacity="1" fill-rule="nonzero"/><path fill="#ffecc3" d="M 511.183594 317.347656 C 511.183594 317.347656 494.699219 257.316406 493.855469 255.066406 C 493.011719 252.8125 490.90625 250.332031 486.476562 248.304688 L 428.480469 221.496094 C 424.503906 219.664062 420.035156 219.464844 415.929688 220.9375 L 164.4375 311.128906 C 163.550781 311.449219 162.976562 312.144531 162.726562 312.941406 L 162.578125 312.628906 L 141.519531 371.839844 C 141.519531 371.839844 139.84375 374.914062 144.242188 376.910156 L 162.292969 323.15625 C 163.472656 319.648438 167.175781 317.929688 170.378906 319.402344 C 181.328125 324.445312 204.757812 335.234375 216.859375 340.8125 C 221.53125 342.964844 224.707031 347.691406 225.125 353.113281 L 229.96875 415.886719 C 229.96875 415.886719 235.203125 420.417969 245.757812 416.632812 L 239.5625 354.207031 C 239.011719 348.671875 242.132812 343.472656 247.070312 341.699219 L 485.695312 256.121094 C 488.941406 254.957031 492.433594 256.9375 493.351562 260.460938 L 509.421875 322.074219 C 509.421875 322.074219 511.941406 320.277344 511.183594 317.347656 " fill-opacity="1" fill-rule="nonzero"/><path fill="#fab300" d="M 165.097656 311.152344 C 164.746094 311.28125 164.660156 311.570312 164.65625 311.789062 C 164.644531 312.011719 164.703125 312.300781 165.046875 312.460938 L 225.527344 340.316406 C 227.582031 341.261719 229.757812 341.742188 231.992188 341.742188 C 233.761719 341.742188 235.511719 341.4375 237.1875 340.835938 L 433.414062 269.683594 L 241.601562 283.71875 L 165.097656 311.152344 " fill-opacity="1" fill-rule="nonzero"/><path fill="#ffd34b" d="M 423.945312 223.117188 C 421.996094 222.21875 419.929688 221.765625 417.808594 221.765625 C 416.125 221.765625 414.464844 222.054688 412.871094 222.628906 L 241.601562 283.71875 C 241.601562 283.71875 312.882812 296.039062 448.886719 265.21875 L 472.992188 253.488281 C 478.046875 251.234375 481.265625 249.523438 478.566406 248.277344 L 423.945312 223.117188 " fill-opacity="1" fill-rule="nonzero"/><path fill="#fadb67" d="M 225.527344 340.316406 L 165.046875 312.460938 C 164.703125 312.300781 164.644531 312.011719 164.65625 311.789062 C 164.660156 311.570312 164.746094 311.28125 165.097656 311.15625 L 180.199219 305.738281 C 180.105469 305.683594 180.015625 305.632812 179.917969 305.578125 L 164.4375 311.128906 C 163.550781 311.449219 162.976562 312.144531 162.726562 312.941406 L 162.578125 312.628906 L 141.519531 371.839844 C 141.519531 371.839844 139.84375 374.914062 144.242188 376.910156 L 162.292969 323.15625 C 163.472656 319.648438 167.175781 317.929688 170.378906 319.402344 C 181.328125 324.445312 204.757812 335.234375 216.859375 340.8125 C 221.53125 342.964844 224.707031 347.691406 225.125 353.113281 L 229.96875 415.890625 C 229.96875 415.890625 232.671875 418.199219 238.074219 418.128906 L 233.4375 350.527344 C 233.4375 350.527344 233.171875 344.941406 225.527344 340.316406 " fill-opacity="1" fill-rule="nonzero"/><path fill="#ffecc3" d="M 484.765625 249.90625 L 483.585938 249.359375 L 238.097656 336.929688 C 236.421875 337.53125 234.671875 337.839844 232.90625 337.839844 C 230.667969 337.839844 228.492188 337.359375 226.4375 336.414062 L 168.761719 309.847656 L 165.097656 311.152344 C 164.746094 311.28125 164.660156 311.570312 164.65625 311.789062 C 164.644531 312.011719 164.703125 312.300781 165.046875 312.460938 L 225.527344 340.316406 C 227.582031 341.261719 229.757812 341.742188 231.992188 341.742188 C 233.761719 341.742188 235.511719 341.4375 237.1875 340.835938 L 484.660156 252.554688 C 485.816406 252.144531 485.886719 250.421875 484.765625 249.90625 " fill-opacity="1" fill-rule="nonzero"/><path fill="#703b00" d="M 263.269531 378.347656 C 241.355469 386.15625 245.007812 400.472656 245.007812 400.472656 L 245.722656 416.308594 L 509.421875 322.074219 L 509.203125 321.234375 C 464.15625 300.265625 444.675781 310.679688 444.675781 310.679688 C 444.675781 310.679688 285.183594 370.539062 263.269531 378.347656 " fill-opacity="1" fill-rule="nonzero"/><path fill="#9b5e02" d="M 616.230469 363.996094 L 597.050781 301.679688 L 597.003906 301.769531 C 596.890625 301.257812 596.574219 300.789062 596.039062 300.542969 L 532.730469 271.382812 C 528.753906 269.554688 524.285156 269.355469 520.179688 270.824219 L 268.6875 361.019531 C 267.800781 361.335938 264.90625 361.171875 264.65625 361.96875 L 243.449219 420.867188 C 243.449219 420.867188 241.769531 423.941406 246.167969 425.941406 L 334.21875 465.777344 L 334.328125 465.863281 L 334.351562 465.882812 C 334.929688 466.320312 337.585938 468.078125 342.320312 468.011719 L 342.324219 468.011719 C 344.464844 467.984375 347.011719 467.597656 350.003906 466.519531 L 613.671875 371.960938 C 613.671875 371.960938 617.707031 368.5 616.230469 363.996094 " fill-opacity="1" fill-rule="nonzero"/><path fill="#ffd34b" d="M 594.777344 299.800781 L 341.519531 390.628906 L 348.867188 462.453125 L 612.535156 367.894531 L 594.777344 299.800781 " fill-opacity="1" fill-rule="nonzero"/><path fill="#fab300" d="M 327.863281 390.265625 L 267.582031 362.5 L 247.351562 422.730469 L 333.082031 461.710938 L 327.863281 390.265625 " fill-opacity="1" fill-rule="nonzero"/><path fill="#ffecc3" d="M 614.296875 363.167969 C 614.296875 363.167969 597.808594 303.136719 596.96875 300.882812 C 596.125 298.632812 594.015625 296.152344 589.589844 294.125 L 531.59375 267.316406 C 527.617188 265.484375 523.148438 265.285156 519.042969 266.757812 L 267.550781 356.953125 C 266.664062 357.269531 266.089844 357.964844 265.839844 358.761719 L 265.691406 358.449219 L 244.632812 417.664062 C 244.632812 417.664062 242.957031 420.734375 247.351562 422.730469 L 265.40625 368.976562 C 266.585938 365.46875 270.289062 363.75 273.492188 365.222656 C 284.4375 370.265625 307.867188 381.054688 319.972656 386.632812 C 324.644531 388.785156 327.816406 393.511719 328.234375 398.9375 L 333.082031 461.710938 C 333.082031 461.710938 338.316406 466.238281 348.867188 462.453125 L 342.671875 400.027344 C 342.125 394.492188 345.246094 389.292969 350.183594 387.523438 L 588.808594 301.945312 C 592.050781 300.78125 595.546875 302.757812 596.464844 306.28125 L 612.535156 367.894531 C 612.535156 367.894531 615.054688 366.097656 614.296875 363.167969 " fill-opacity="1" fill-rule="nonzero"/><path fill="#fab300" d="M 268.210938 356.976562 C 267.859375 357.101562 267.773438 357.390625 267.765625 357.609375 C 267.757812 357.828125 267.816406 358.121094 268.15625 358.285156 L 328.636719 386.136719 C 330.691406 387.082031 332.871094 387.5625 335.105469 387.5625 C 336.875 387.5625 338.621094 387.257812 340.300781 386.65625 L 536.527344 315.503906 L 344.710938 329.539062 L 268.210938 356.976562 " fill-opacity="1" fill-rule="nonzero"/><path fill="#ffd34b" d="M 527.058594 268.9375 C 525.105469 268.039062 523.042969 267.585938 520.921875 267.585938 C 519.238281 267.585938 517.578125 267.875 515.984375 268.445312 L 344.710938 329.539062 C 344.710938 329.539062 415.992188 341.859375 551.996094 311.039062 L 576.105469 299.308594 C 581.160156 297.054688 584.378906 295.34375 581.679688 294.097656 L 527.058594 268.9375 " fill-opacity="1" fill-rule="nonzero"/><path fill="#fadb67" d="M 328.636719 386.136719 L 268.15625 358.285156 C 267.816406 358.121094 267.757812 357.828125 267.765625 357.609375 C 267.773438 357.390625 267.859375 357.101562 268.210938 356.976562 L 283.3125 351.558594 C 283.21875 351.503906 283.128906 351.453125 283.03125 351.398438 L 267.550781 356.953125 C 266.664062 357.269531 266.089844 357.964844 265.839844 358.761719 L 265.691406 358.449219 L 244.632812 417.664062 C 244.632812 417.664062 242.957031 420.734375 247.351562 422.730469 L 265.40625 368.976562 C 266.585938 365.46875 270.289062 363.75 273.492188 365.222656 C 284.4375 370.265625 307.867188 381.054688 319.972656 386.632812 C 324.644531 388.785156 327.816406 393.511719 328.234375 398.9375 L 333.082031 461.710938 C 333.082031 461.710938 335.785156 464.019531 341.1875 463.945312 L 336.550781 396.347656 C 336.550781 396.347656 336.28125 390.761719 328.636719 386.136719 " fill-opacity="1" fill-rule="nonzero"/><path fill="#ffecc3" d="M 587.875 295.726562 L 586.695312 295.179688 L 341.210938 382.75 C 339.535156 383.351562 337.785156 383.660156 336.015625 383.660156 C 333.78125 383.660156 331.605469 383.175781 329.550781 382.234375 L 271.875 355.667969 L 268.210938 356.976562 C 267.859375 357.101562 267.773438 357.390625 267.765625 357.609375 C 267.757812 357.828125 267.816406 358.121094 268.15625 358.285156 L 328.636719 386.136719 C 330.691406 387.082031 332.871094 387.5625 335.105469 387.5625 C 336.875 387.5625 338.621094 387.257812 340.300781 386.65625 L 587.769531 298.378906 C 588.929688 297.964844 589 296.242188 587.875 295.726562 " fill-opacity="1" fill-rule="nonzero"/><path fill="#fab300" d="M 366.382812 424.167969 C 344.46875 431.976562 348.117188 446.292969 348.117188 446.292969 L 348.835938 462.128906 L 612.535156 367.894531 L 612.316406 367.054688 C 567.265625 346.085938 547.789062 356.496094 547.789062 356.496094 C 547.789062 356.496094 388.296875 416.363281 366.382812 424.167969 " fill-opacity="1" fill-rule="nonzero"/><path fill="#fadac1" d="M 499.453125 273.785156 L 496.300781 263.539062 C 495.246094 259.789062 494.449219 256.988281 494.066406 255.730469 L 519.117188 266.730469 C 519.089844 266.738281 519.066406 266.75 519.042969 266.757812 L 499.453125 273.785156 " fill-opacity="1" fill-rule="nonzero"/><path fill="#985002" d="M 246.988281 341.730469 C 247.015625 341.71875 247.042969 341.710938 247.070312 341.699219 L 485.695312 256.121094 C 485.707031 256.117188 485.722656 256.113281 485.734375 256.109375 L 246.988281 341.730469 M 497.050781 274.644531 L 493.347656 260.4375 C 493.347656 260.445312 493.351562 260.457031 493.351562 260.460938 L 497.050781 274.644531 M 499.183594 273.878906 C 498.121094 270.039062 497.132812 266.492188 496.300781 263.539062 L 499.453125 273.785156 L 499.183594 273.878906 " fill-opacity="1" fill-rule="nonzero"/><path fill="#9e5900" d="M 271.878906 355.398438 L 244.15625 343.289062 C 245.007812 342.636719 245.957031 342.109375 246.988281 341.730469 L 485.734375 256.109375 C 486.355469 255.890625 486.980469 255.789062 487.597656 255.789062 C 490.199219 255.789062 492.597656 257.617188 493.347656 260.4375 L 497.050781 274.644531 L 271.878906 355.398438 " fill-opacity="1" fill-rule="nonzero"/><path fill="#faca94" d="M 244.15625 343.289062 L 237.933594 340.570312 L 484.660156 252.554688 C 485 252.4375 485.246094 252.203125 485.390625 251.921875 L 494.066406 255.730469 C 494.449219 256.988281 495.246094 259.789062 496.300781 263.539062 C 497.132812 266.492188 498.121094 270.039062 499.183594 273.878906 L 497.050781 274.644531 L 493.351562 260.460938 C 493.351562 260.457031 493.347656 260.445312 493.347656 260.4375 C 492.597656 257.617188 490.199219 255.789062 487.597656 255.789062 C 486.980469 255.789062 486.355469 255.890625 485.734375 256.109375 C 485.722656 256.113281 485.707031 256.117188 485.695312 256.121094 L 247.070312 341.699219 C 247.042969 341.710938 247.015625 341.71875 246.988281 341.730469 C 245.957031 342.109375 245.007812 342.636719 244.15625 343.289062 M 476.140625 252.019531 C 478.167969 250.996094 479.480469 250.109375 479.542969 249.355469 L 481.367188 250.15625 L 476.140625 252.019531 " fill-opacity="1" fill-rule="nonzero"/><path fill="#f59900" d="M 232.90625 337.839844 C 232.449219 337.839844 231.996094 337.820312 231.546875 337.777344 L 189.941406 319.605469 L 189.082031 319.207031 L 281.613281 286.148438 C 282.148438 286.148438 282.691406 286.152344 283.234375 286.152344 C 313.898438 286.152344 361.261719 283.140625 424.53125 270.429688 L 238.097656 336.929688 C 236.421875 337.53125 234.671875 337.839844 232.90625 337.839844 " fill-opacity="1" fill-rule="nonzero"/><path fill="#fab439" d="M 283.234375 286.152344 C 282.691406 286.152344 282.148438 286.148438 281.613281 286.148438 L 431.457031 232.609375 C 433.050781 232.039062 434.710938 231.75 436.394531 231.75 C 438.515625 231.75 440.582031 232.207031 442.53125 233.101562 L 479.542969 249.355469 C 479.480469 250.109375 478.167969 250.996094 476.140625 252.019531 L 424.53125 270.429688 C 361.261719 283.140625 313.898438 286.152344 283.234375 286.152344 " fill-opacity="1" fill-rule="nonzero"/><path fill="#faca94" d="M 237.933594 340.570312 L 231.546875 337.777344 C 231.996094 337.820312 232.449219 337.839844 232.90625 337.839844 C 234.671875 337.839844 236.421875 337.53125 238.097656 336.929688 L 424.53125 270.429688 L 476.140625 252.019531 L 481.367188 250.15625 L 485.390625 251.921875 C 485.246094 252.203125 485 252.4375 484.660156 252.554688 L 237.933594 340.570312 M 189.941406 319.605469 L 189.058594 319.21875 L 189.082031 319.207031 L 189.941406 319.605469 " fill-opacity="1" fill-rule="nonzero"/><path fill="#faca94" d="M 271.878906 355.398438 L 497.050781 274.644531 L 499.183594 273.878906 L 499.453125 273.785156 L 519.042969 266.757812 C 519.066406 266.75 519.089844 266.738281 519.117188 266.730469 L 521.070312 267.585938 C 521.019531 267.585938 520.96875 267.585938 520.921875 267.585938 C 519.238281 267.585938 517.578125 267.875 515.984375 268.445312 L 344.710938 329.539062 L 283.3125 351.558594 C 283.21875 351.503906 283.125 351.453125 283.03125 351.398438 L 271.878906 355.398438 " fill-opacity="1" fill-rule="nonzero"/><path fill="#f59900" d="M 308.957031 370.441406 C 304.519531 370.441406 302.039062 368.792969 301.488281 368.375 L 301.464844 368.359375 L 301.355469 368.277344 L 272.207031 355.542969 L 283.3125 351.558594 L 344.710938 329.539062 C 344.710938 329.539062 358.78125 331.96875 386.347656 331.96875 C 396.8125 331.96875 409.230469 331.617188 423.558594 330.652344 L 316.640625 368.996094 C 313.742188 370.035156 311.277344 370.414062 309.203125 370.441406 L 309.199219 370.441406 C 309.121094 370.441406 309.039062 370.441406 308.957031 370.441406 " fill-opacity="1" fill-rule="nonzero"/><path fill="#fab439" d="M 386.347656 331.96875 C 358.78125 331.96875 344.710938 329.539062 344.710938 329.539062 L 515.984375 268.445312 C 517.578125 267.875 519.238281 267.585938 520.921875 267.585938 C 520.96875 267.585938 521.019531 267.585938 521.070312 267.585938 L 556.289062 283.050781 L 423.558594 330.652344 C 409.230469 331.617188 396.8125 331.96875 386.347656 331.96875 " fill-opacity="1" fill-rule="nonzero"/><path fill="#f5bb4e" d="M 272.207031 355.542969 L 271.878906 355.398438 L 283.03125 351.398438 C 283.125 351.453125 283.21875 351.503906 283.3125 351.558594 L 272.207031 355.542969 " fill-opacity="1" fill-rule="nonzero"/><path fill="#9b5e02" d="M 564.847656 262.753906 L 546.28125 202.425781 L 546.238281 202.511719 C 546.128906 202.019531 545.824219 201.566406 545.304688 201.328125 L 484.015625 173.097656 C 480.167969 171.320312 475.839844 171.128906 471.863281 172.554688 L 228.410156 259.871094 C 227.546875 260.175781 224.746094 260.015625 224.5 260.792969 L 203.972656 317.8125 C 203.972656 317.8125 202.347656 320.785156 206.605469 322.71875 L 291.84375 361.285156 L 291.949219 361.367188 L 291.972656 361.382812 C 292.535156 361.808594 295.101562 363.511719 299.691406 363.449219 C 301.757812 363.421875 304.230469 363.042969 307.125 362.003906 L 562.371094 270.464844 C 562.371094 270.464844 566.277344 267.113281 564.847656 262.753906 " fill-opacity="1" fill-rule="nonzero"/><path fill="#ffd34b" d="M 544.046875 200.6875 L 298.875 288.613281 L 305.988281 358.140625 L 561.234375 266.605469 L 544.046875 200.6875 " fill-opacity="1" fill-rule="nonzero"/><path fill="#fab300" d="M 285.65625 288.261719 L 227.300781 261.382812 L 207.714844 319.691406 L 290.707031 357.421875 L 285.65625 288.261719 " fill-opacity="1" fill-rule="nonzero"/><path fill="#f6f4df" d="M 562.941406 262.027344 C 562.941406 262.027344 546.984375 203.914062 546.167969 201.730469 C 545.351562 199.550781 543.3125 197.15625 539.023438 195.191406 L 482.878906 169.238281 C 479.03125 167.464844 474.703125 167.269531 470.726562 168.695312 L 227.269531 256.011719 C 226.410156 256.316406 225.851562 256.988281 225.609375 257.761719 L 225.46875 257.460938 L 205.082031 314.78125 C 205.082031 314.78125 203.457031 317.757812 207.714844 319.691406 L 225.195312 267.648438 C 226.332031 264.253906 229.917969 262.589844 233.019531 264.019531 C 243.617188 268.902344 266.296875 279.347656 278.011719 284.742188 C 282.539062 286.828125 285.609375 291.402344 286.015625 296.652344 L 290.707031 357.421875 C 290.707031 357.421875 295.773438 361.808594 305.988281 358.140625 L 299.992188 297.710938 C 299.460938 292.351562 302.484375 287.316406 307.265625 285.605469 L 538.269531 202.757812 C 541.410156 201.632812 544.792969 203.546875 545.679688 206.957031 L 561.234375 266.605469 C 561.234375 266.605469 563.679688 264.863281 562.941406 262.027344 " fill-opacity="1" fill-rule="nonzero"/><path fill="#fab300" d="M 227.90625 256.035156 C 227.566406 256.15625 227.484375 256.433594 227.476562 256.644531 C 227.46875 256.859375 227.527344 257.144531 227.855469 257.296875 L 286.40625 284.265625 C 288.394531 285.179688 290.5 285.644531 292.664062 285.644531 C 294.378906 285.644531 296.070312 285.351562 297.695312 284.765625 L 487.65625 215.886719 L 301.964844 229.472656 L 227.90625 256.035156 " fill-opacity="1" fill-rule="nonzero"/><path fill="#ffd34b" d="M 478.488281 170.808594 C 476.601562 169.941406 474.601562 169.5 472.546875 169.5 C 470.917969 169.5 469.3125 169.777344 467.769531 170.332031 L 301.964844 229.472656 C 301.964844 229.472656 370.972656 241.398438 502.632812 211.5625 L 525.972656 200.203125 C 530.867188 198.027344 533.980469 196.367188 531.363281 195.164062 L 478.488281 170.808594 " fill-opacity="1" fill-rule="nonzero"/><path fill="#ffd34b" d="M 286.40625 284.265625 L 227.855469 257.296875 C 227.527344 257.144531 227.46875 256.859375 227.476562 256.644531 C 227.484375 256.433594 227.566406 256.15625 227.90625 256.035156 L 242.527344 250.789062 C 242.433594 250.738281 242.347656 250.6875 242.253906 250.636719 L 227.269531 256.011719 C 226.410156 256.316406 225.851562 256.988281 225.609375 257.761719 L 225.46875 257.460938 L 205.082031 314.78125 C 205.082031 314.78125 203.457031 317.757812 207.714844 319.691406 L 225.195312 267.648438 C 226.332031 264.253906 229.917969 262.589844 233.019531 264.019531 C 243.617188 268.902344 266.296875 279.347656 278.011719 284.742188 C 282.539062 286.828125 285.609375 291.402344 286.015625 296.652344 L 290.707031 357.421875 C 290.707031 357.421875 293.324219 359.660156 298.554688 359.589844 L 294.066406 294.148438 C 294.066406 294.148438 293.808594 288.738281 286.40625 284.265625 " fill-opacity="1" fill-rule="nonzero"/><path fill="#ffecc3" d="M 537.367188 196.742188 L 536.222656 196.214844 L 298.578125 280.988281 C 296.953125 281.570312 295.261719 281.867188 293.546875 281.867188 C 291.382812 281.867188 289.277344 281.398438 287.289062 280.484375 L 231.453125 254.769531 L 227.90625 256.035156 C 227.566406 256.15625 227.484375 256.433594 227.476562 256.644531 C 227.46875 256.859375 227.527344 257.144531 227.855469 257.296875 L 286.40625 284.265625 C 288.394531 285.179688 290.5 285.644531 292.664062 285.644531 C 294.378906 285.644531 296.070312 285.351562 297.695312 284.765625 L 537.261719 199.308594 C 538.386719 198.910156 538.453125 197.238281 537.367188 196.742188 " fill-opacity="1" fill-rule="nonzero"/><path fill="#fab300" d="M 322.945312 321.082031 C 301.726562 328.640625 305.261719 342.496094 305.261719 342.496094 L 305.957031 357.828125 L 561.234375 266.605469 L 561.023438 265.789062 C 517.417969 245.492188 498.558594 255.574219 498.558594 255.574219 C 498.558594 255.574219 344.15625 313.523438 322.945312 321.082031 " fill-opacity="1" fill-rule="nonzero"/><path fill="#d78f00" d="M 285.71875 295.097656 L 224.382812 327.691406 L 290.289062 357.65625 Z M 285.71875 295.097656 " fill-opacity="1" fill-rule="nonzero"/><path fill="#d78f00" d="M 327.886719 399.195312 L 266.550781 431.792969 L 332.453125 461.753906 Z M 327.886719 399.195312 " fill-opacity="1" fill-rule="nonzero"/><path fill="#d78f00" d="M 378.261719 514.066406 L 316.925781 546.660156 L 382.828125 576.621094 Z M 378.261719 514.066406 " fill-opacity="1" fill-rule="nonzero"/><path fill="#d78f00" d="M 271.914062 464.605469 L 210.582031 497.203125 L 276.484375 527.164062 Z M 271.914062 464.605469 " fill-opacity="1" fill-rule="nonzero"/><path fill="#d78f00" d="M 163.328125 415.546875 L 101.992188 448.144531 L 167.898438 478.105469 Z M 163.328125 415.546875 " fill-opacity="1" fill-rule="nonzero"/><path fill="#d78f00" d="M 224.898438 353.328125 L 163.5625 385.921875 L 229.46875 415.886719 Z M 224.898438 353.328125 " fill-opacity="1" fill-rule="nonzero"/></svg>